<?xml version="1.0" encoding="utf-8"?>
<!-- Generator: Adobe Illustrator 16.0.0, SVG Export Plug-In . SVG Version: 6.00 Build 0)  -->
<!DOCTYPE svg PUBLIC "-//W3C//DTD SVG 1.1//EN" "http://www.w3.org/Graphics/SVG/1.1/DTD/svg11.dtd">
<svg version="1.1" id="Layer_1" xmlns="http://www.w3.org/2000/svg" xmlns:xlink="http://www.w3.org/1999/xlink" x="0px" y="0px"
	 width="20px" height="20px" viewBox="0 0 20 20" enable-background="new 0 0 20 20" xml:space="preserve">
<path fill-rule="evenodd" clip-rule="evenodd" fill="#A6A6A6" d="M4.274,17.768c0.009-0.045,0.025-0.09,0.026-0.136
	c0.04-2.059,0.451-4.045,1.182-5.966c0.633-1.665,1.495-3.209,2.49-4.682C7.996,6.95,8.018,6.914,8.04,6.878
	c0.004-0.007,0-0.02,0-0.052c-0.085,0-0.172,0-0.258,0c-0.32,0-0.64,0.002-0.959-0.002C6.595,6.822,6.504,6.753,6.506,6.53
	c0.002-0.194,0.024-0.399,0.089-0.581c0.182-0.511,0.393-1.011,0.587-1.519c0.051-0.133,0.082-0.275,0.129-0.436
	c-0.393,0-0.753,0.003-1.114-0.001C6.016,3.991,5.833,3.984,5.652,3.962C5.439,3.936,5.337,3.833,5.313,3.616
	c-0.022-0.192-0.015-0.387-0.03-0.58C5.253,2.651,5.237,2.263,5.179,1.882C5.135,1.595,5.014,1.336,4.669,1.287
	C4.65,1.284,4.625,1.259,4.617,1.239c-0.103-0.25-0.13-0.515,0.154-0.655c0.305-0.151,0.63-0.268,0.957-0.366
	c0.459-0.139,0.93-0.227,1.415-0.217c0.363,0.007,0.542,0.164,0.523,0.526C7.63,1.205,7.57,1.881,7.52,2.558
	C7.517,2.599,7.515,2.641,7.511,2.709c0.06,0,0.115,0,0.169,0c0.498,0,0.996-0.002,1.493,0.001c0.12,0.001,0.242,0.007,0.358,0.033
	C9.765,2.795,9.875,2.951,9.812,3.22C9.721,3.606,9.554,3.974,9.412,4.347c-0.118,0.31-0.26,0.612-0.368,0.926
	C8.95,5.547,9.038,5.656,9.325,5.661c0.346,0.005,0.692,0.002,1.038,0.007c0.099,0.001,0.207-0.004,0.293,0.033
	c0.076,0.032,0.164,0.11,0.183,0.185c0.076,0.287,0.015,0.564-0.155,0.803c-0.36,0.506-0.737,1-1.096,1.507
	C9.375,8.498,9.182,8.814,8.981,9.125c-0.022,0.034-0.037,0.072-0.07,0.136C9.144,9.21,9.349,9.153,9.558,9.124
	c0.654-0.093,1.309-0.183,1.965-0.26c0.581-0.068,1.157-0.016,1.723,0.131c0.979,0.253,1.527,0.902,1.719,1.876
	c0.174,0.885,0.138,1.779,0.102,2.672c-0.021,0.523-0.036,1.047-0.045,1.569c-0.012,0.738-0.029,1.477-0.018,2.213
	c0.005,0.315,0.064,0.633,0.125,0.943c0.023,0.119,0.117,0.227,0.187,0.334c0.021,0.033,0.07,0.071,0.102,0.067
	c0.23-0.026,0.267,0.146,0.298,0.3c0.039,0.194-0.011,0.378-0.199,0.468c-0.256,0.122-0.519,0.237-0.789,0.317
	c-0.505,0.149-1.021,0.247-1.552,0.243c-0.093-0.001-0.189-0.015-0.276-0.045c-0.197-0.069-0.254-0.245-0.258-0.428
	c-0.01-0.471-0.012-0.942-0.004-1.413c0.019-1.136,0.041-2.271,0.07-3.407c0.02-0.77,0.028-1.54-0.106-2.301
	c-0.063-0.357-0.164-0.713-0.295-1.052c-0.25-0.645-0.776-0.966-1.428-1.088c-0.686-0.128-1.372-0.093-2.051,0.065
	c-0.393,0.091-0.64,0.348-0.816,0.695c-0.406,0.804-0.673,1.655-0.874,2.529c-0.162,0.702-0.246,1.415-0.29,2.135
	c-0.045,0.734-0.053,1.467,0.044,2.193c0.08,0.598,0.208,1.188,0.32,1.813c-0.246,0.065-0.511,0.151-0.783,0.203
	c-0.441,0.082-0.885,0.137-1.338,0.074c-0.4-0.056-0.612-0.211-0.691-0.605c-0.054-0.27-0.067-0.549-0.099-0.823
	c-0.006-0.05-0.018-0.099-0.027-0.147C4.274,18.187,4.274,17.978,4.274,17.768z"/>
</svg>
