<?xml version="1.0" encoding="utf-8"?>
<!-- Generator: Adobe Illustrator 16.0.0, SVG Export Plug-In . SVG Version: 6.00 Build 0)  -->
<!DOCTYPE svg PUBLIC "-//W3C//DTD SVG 1.1//EN" "http://www.w3.org/Graphics/SVG/1.1/DTD/svg11.dtd">
<svg version="1.1" id="Layer_1" xmlns="http://www.w3.org/2000/svg" xmlns:xlink="http://www.w3.org/1999/xlink" x="0px" y="0px"
	 width="20px" height="20px" viewBox="0 0 20 20" enable-background="new 0 0 20 20" xml:space="preserve">
<path fill="#00A600" stroke="#00A600" stroke-linejoin="round" stroke-miterlimit="10" d="M12.997,5.938
	c-0.821-0.754-1.511-1.177-2.574-1.177c-1.201,0-1.933,0.622-1.933,1.777c0,2.662,6.037,2.131,6.037,6.614
	c0,2.105-1.241,3.66-3.438,4.062V19.5H9.313v-2.221c-1.355-0.133-2.841-0.754-3.84-1.688l1.154-1.729
	c1.043,0.824,2.086,1.375,3.284,1.375c1.442,0,2.151-0.707,2.151-1.907c0-2.928-6.036-2.507-6.036-6.68
	c0-2.065,1.287-3.53,3.286-3.884V0.5h1.776v2.22c1.42,0.177,2.396,0.866,3.218,1.731L12.997,5.938z"/>
</svg>
