<?xml version="1.0" encoding="utf-8"?>
<!-- Generator: Adobe Illustrator 16.0.4, SVG Export Plug-In . SVG Version: 6.00 Build 0)  -->
<!DOCTYPE svg PUBLIC "-//W3C//DTD SVG 1.1//EN" "http://www.w3.org/Graphics/SVG/1.1/DTD/svg11.dtd">
<svg version="1.1" id="Laag_1" xmlns="http://www.w3.org/2000/svg" xmlns:xlink="http://www.w3.org/1999/xlink" x="0px" y="0px"
	 width="25px" height="25px" viewBox="0 0 25 25" enable-background="new 0 0 25 25" xml:space="preserve">
<path fill="#59AACB" d="M12.546,0.312C5.815,0.312,0.358,5.771,0.358,12.5c0,6.731,5.457,12.188,12.188,12.188
	S24.733,19.231,24.733,12.5C24.733,5.771,19.277,0.312,12.546,0.312z M15.772,12.45h-2.111c0,3.374,0,7.526,0,7.526h-3.128
	c0,0,0-4.111,0-7.526H9.047V9.791h1.486V8.07c0-1.233,0.586-3.156,3.157-3.156l2.315,0.009v2.58c0,0-1.406,0-1.68,0
	c-0.276,0-0.665,0.138-0.665,0.725v1.563h2.386L15.772,12.45z"/>
</svg>
