<?xml version="1.0" encoding="utf-8"?>
<!-- Generator: Adobe Illustrator 16.0.0, SVG Export Plug-In . SVG Version: 6.00 Build 0)  -->
<!DOCTYPE svg PUBLIC "-//W3C//DTD SVG 1.1//EN" "http://www.w3.org/Graphics/SVG/1.1/DTD/svg11.dtd">
<svg version="1.1" id="Layer_1" xmlns="http://www.w3.org/2000/svg" xmlns:xlink="http://www.w3.org/1999/xlink" x="0px" y="0px"
	 width="20px" height="20px" viewBox="0 0 20 20" enable-background="new 0 0 20 20" xml:space="preserve">
<g>
	<path fill="#BF1F3F" d="M14.333,3.51c0.467,0,0.926,0.089,1.366,0.267c0.908,0.364,1.62,1.062,2.005,1.963
		c0.385,0.901,0.396,1.897,0.03,2.807c-0.494,1.228-4.231,4.702-7.733,7.528c-3.975-3.206-7.289-6.419-7.735-7.529
		C1.901,7.636,1.911,6.64,2.295,5.74c0.385-0.902,1.098-1.599,2.007-1.964C4.741,3.599,5.199,3.51,5.666,3.51
		c1.087,0,2.109,0.474,2.803,1.299L10,6.63l1.531-1.821C12.225,3.983,13.246,3.51,14.333,3.51 M14.333,1.51
		c-1.69,0-3.265,0.741-4.333,2.012C8.931,2.251,7.357,1.51,5.666,1.51c-0.723,0-1.434,0.138-2.11,0.41
		c-1.405,0.564-2.505,1.642-3.1,3.034c-0.594,1.392-0.61,2.933-0.046,4.337c1.058,2.632,8.924,8.812,9.267,9.082L9.7,18.391
		c0.083,0.062,0.186,0.092,0.29,0.092c0.122,0,0.246-0.041,0.341-0.115c0.334-0.262,8.2-6.442,9.259-9.075
		c0.564-1.405,0.549-2.945-0.046-4.338s-1.694-2.47-3.101-3.034C15.768,1.648,15.057,1.51,14.333,1.51L14.333,1.51z"/>
</g>
</svg>
