<?xml version="1.0" encoding="utf-8"?>
<!-- Generator: Adobe Illustrator 16.0.0, SVG Export Plug-In . SVG Version: 6.00 Build 0)  -->
<!DOCTYPE svg PUBLIC "-//W3C//DTD SVG 1.1//EN" "http://www.w3.org/Graphics/SVG/1.1/DTD/svg11.dtd">
<svg version="1.1" id="Layer_1" xmlns="http://www.w3.org/2000/svg" xmlns:xlink="http://www.w3.org/1999/xlink" x="0px" y="0px"
	 width="20px" height="20px" viewBox="0 0 20 20" enable-background="new 0 0 20 20" xml:space="preserve">
<path fill="#BF1F3F" d="M6.366,4.607L5.031,3.386C4.625,3.014,4.638,2.421,5.06,2.067C5.06,2.067,7.522,0,9.711,0
	c3.344,0,5.996,1.441,5.996,5.073c0,3.21-3.625,4.236-3.912,6.905c-0.227,0.371-0.615,0.631-1.081,0.631l0.002,0.014H8.519
	c-0.529-0.057-0.95-0.416-1.096-0.912c0.145-3.107,3.556-4.606,3.556-6.293c0-1.037-0.749-1.44-1.611-1.44
	c-0.746,0-1.292,0.302-1.84,0.75C7.147,4.883,6.72,4.828,6.366,4.607z M9.596,14.008c-1.673,0-2.881,1.323-2.881,2.994
	c0,1.67,1.208,2.998,2.881,2.998c1.669,0,2.88-1.328,2.88-2.998C12.479,15.331,11.268,14.008,9.596,14.008z"/>
</svg>
