<?xml version="1.0" encoding="utf-8"?>
<!-- Generator: Adobe Illustrator 16.0.0, SVG Export Plug-In . SVG Version: 6.00 Build 0)  -->
<!DOCTYPE svg PUBLIC "-//W3C//DTD SVG 1.1//EN" "http://www.w3.org/Graphics/SVG/1.1/DTD/svg11.dtd">
<svg version="1.1" id="Layer_1" xmlns="http://www.w3.org/2000/svg" xmlns:xlink="http://www.w3.org/1999/xlink" x="0px" y="0px"
	 width="20px" height="20px" viewBox="0 0 20 20" enable-background="new 0 0 20 20" xml:space="preserve">
<path fill="#BF1F3F" d="M10,13.9c1.7,0,2.934,1.351,2.934,3.051C12.934,18.65,11.7,20,10,20s-2.932-1.35-2.932-3.049
	C7.068,15.251,8.3,13.9,10,13.9z M7.739,5.337C7.691,4.789,7.635,3.891,7.613,3.342L7.519,0.999C7.497,0.45,7.929,0,8.479,0h3.042
	c0.551,0,0.981,0.45,0.959,0.999l-0.094,2.343c-0.023,0.549-0.08,1.447-0.128,1.995l-0.532,6.16
	c-0.047,0.548-0.535,0.996-1.086,0.996H9.357c-0.55,0-1.039-0.448-1.086-0.996L7.739,5.337z"/>
</svg>
