<?xml version="1.0" encoding="utf-8"?>
<!-- Generator: Adobe Illustrator 16.0.0, SVG Export Plug-In . SVG Version: 6.00 Build 0)  -->
<!DOCTYPE svg PUBLIC "-//W3C//DTD SVG 1.1//EN" "http://www.w3.org/Graphics/SVG/1.1/DTD/svg11.dtd">
<svg version="1.1" id="Layer_1" xmlns="http://www.w3.org/2000/svg" xmlns:xlink="http://www.w3.org/1999/xlink" x="0px" y="0px"
	 width="20px" height="20px" viewBox="0 0 20 20" enable-background="new 0 0 20 20" xml:space="preserve">
<path fill="#E3B222" d="M13.307,15.243l2.411-0.005l-0.005,2.353l-0.001,0.003c0.007,0.616-0.229,1.234-0.708,1.704
	c-0.002,0.002-0.003,0.004-0.005,0.007c-0.951,0.928-2.494,0.928-3.446-0.002c-0.476-0.464-0.713-1.072-0.713-1.682
	s0.238-1.217,0.713-1.684c0.002,0,0.004-0.002,0.006-0.002c0.482-0.471,1.115-0.699,1.746-0.691L13.307,15.243z M8.443,15.936
	c-0.483-0.47-1.116-0.699-1.746-0.691l-0.003-0.001l-2.411-0.005l0.005,2.353l0.001,0.003c-0.007,0.616,0.228,1.234,0.708,1.704
	C4.998,19.3,5,19.302,5.001,19.305c0.951,0.928,2.494,0.928,3.446,0c0.476-0.466,0.714-1.076,0.714-1.683
	c0-0.61-0.238-1.218-0.714-1.683C8.445,15.938,8.443,15.938,8.443,15.936z M16.534,8.279c0,1.321-1.073,2.393-2.394,2.393
	c0,1.322-1.072,2.395-2.395,2.395c-0.322,0-0.627-0.068-0.907-0.186v4.74v1.54C10.839,19.623,10.462,20,10,20
	c-0.461,0-0.839-0.377-0.839-0.839v-1.539v-4.741c-0.28,0.118-0.584,0.186-0.907,0.186c-1.322,0-2.393-1.072-2.393-2.394
	c-1.322,0-2.394-1.072-2.394-2.393c0-0.69,0.293-1.311,0.76-1.746C3.759,6.098,3.466,5.477,3.466,4.788
	c0-1.323,1.072-2.394,2.394-2.394C5.86,1.072,6.932,0,8.253,0C8.943,0,9.563,0.294,10,0.761C10.437,0.294,11.057,0,11.746,0
	c1.322,0,2.395,1.072,2.395,2.392c1.321,0,2.393,1.072,2.393,2.394c0,0.689-0.293,1.309-0.76,1.746
	C16.24,6.969,16.534,7.589,16.534,8.279z M14.141,6.533c0-2.286-1.854-4.14-4.141-4.14c-2.287,0-4.14,1.854-4.14,4.14
	c0,2.286,1.853,4.14,4.14,4.14C12.286,10.673,14.141,8.819,14.141,6.533z"/>
</svg>
