<?xml version="1.0" encoding="utf-8"?>
<!-- Generator: Adobe Illustrator 16.0.0, SVG Export Plug-In . SVG Version: 6.00 Build 0)  -->
<!DOCTYPE svg PUBLIC "-//W3C//DTD SVG 1.1//EN" "http://www.w3.org/Graphics/SVG/1.1/DTD/svg11.dtd">
<svg version="1.1" id="Layer_1" xmlns="http://www.w3.org/2000/svg" xmlns:xlink="http://www.w3.org/1999/xlink" x="0px" y="0px"
	 width="20px" height="20px" viewBox="0 0 20 20" enable-background="new 0 0 20 20" xml:space="preserve">
<path fill="#00A0B1" d="M12.671,2.762c1.256,0,2.577,0.538,3.497,1.646c0.42-0.062,0.856-0.097,1.311-0.097
	c0.249,0,0.505,0.011,0.764,0.031c0,0-0.594,0.663-1.214,1.608c0.147,0.418,0.25,0.878,0.3,1.382
	c0.67,6.538-3.651,9.906-7.941,9.906c-3.376-0.001-6.733-2.085-7.626-6.35c0,0,2.055,0.977,4.027,1.143
	C5.057,11.1,4.499,9.947,4.208,8.557c0,0,2.451,1.165,4.567,1.165c0.178,0,0.354-0.009,0.528-0.026
	c0.084-0.62,0.05-1.387-0.141-2.333C8.555,4.349,10.515,2.762,12.671,2.762 M12.671,1c-1.698,0-3.24,0.696-4.231,1.909
	C7.42,4.156,7.064,5.862,7.438,7.71C7.443,7.741,7.45,7.771,7.455,7.801C6.394,7.573,5.372,7.16,4.962,6.965
	c-0.24-0.114-0.498-0.171-0.754-0.171c-0.388,0-0.773,0.129-1.09,0.379c-0.525,0.414-0.77,1.09-0.633,1.746
	c0.028,0.136,0.059,0.272,0.092,0.405C2.537,9.306,2.515,9.296,2.512,9.295c-0.239-0.113-0.495-0.168-0.75-0.168
	c-0.39,0-0.775,0.128-1.092,0.379C0.146,9.92-0.1,10.596,0.037,11.25c0.507,2.415,1.729,4.425,3.535,5.811
	C5.201,18.31,7.266,19,9.387,19c2.771,0,5.395-1.149,7.199-3.151c1.386-1.536,2.944-4.294,2.494-8.696
	c-0.03-0.295-0.076-0.587-0.137-0.87c0.344-0.465,0.607-0.763,0.61-0.767c0.444-0.499,0.569-1.208,0.32-1.828
	c-0.248-0.62-0.824-1.048-1.49-1.102c-0.302-0.024-0.607-0.038-0.905-0.038c-0.218,0-0.434,0.007-0.649,0.02
	C15.687,1.562,14.216,1,12.671,1L12.671,1z"/>
</svg>
