<?xml version="1.0" encoding="utf-8"?>
<!-- Generator: Adobe Illustrator 16.0.0, SVG Export Plug-In . SVG Version: 6.00 Build 0)  -->
<!DOCTYPE svg PUBLIC "-//W3C//DTD SVG 1.1//EN" "http://www.w3.org/Graphics/SVG/1.1/DTD/svg11.dtd">
<svg version="1.1" id="Layer_1" xmlns="http://www.w3.org/2000/svg" xmlns:xlink="http://www.w3.org/1999/xlink" x="0px" y="0px"
	 width="20px" height="20px" viewBox="0 0 20 20" enable-background="new 0 0 20 20" xml:space="preserve">
<path fill="#2E8CEF" d="M7.384,2.343C7.384,0.98,8.474,0,9.998,0c1.527,0,2.619,0.98,2.619,2.343c0,1.362-1.092,2.343-2.619,2.343
	C8.474,4.686,7.384,3.706,7.384,2.343z M11.341,6.375H8.655c-0.55,0-1,0.45-1,1V19c0,0.55,0.45,1,1,1h2.686c0.55,0,1-0.45,1-1V7.375
	C12.341,6.825,11.891,6.375,11.341,6.375z"/>
</svg>
