<?xml version="1.0" encoding="utf-8"?>
<!-- Generator: Adobe Illustrator 16.0.0, SVG Export Plug-In . SVG Version: 6.00 Build 0)  -->
<!DOCTYPE svg PUBLIC "-//W3C//DTD SVG 1.1//EN" "http://www.w3.org/Graphics/SVG/1.1/DTD/svg11.dtd">
<svg version="1.1" id="Layer_1" xmlns="http://www.w3.org/2000/svg" xmlns:xlink="http://www.w3.org/1999/xlink" x="0px" y="0px"
	 width="20px" height="20px" viewBox="0 0 20 20" enable-background="new 0 0 20 20" xml:space="preserve">
<path fill="#BF1F40" d="M18.882,2.824c-0.031-0.009-0.061-0.024-0.091-0.036c-5.861,0-11.721,0-17.582,0
	C1.174,2.801,1.14,2.817,1.104,2.828C0.523,3.009,0.157,3.389,0.027,3.99C0.022,4.013,0.009,4.034,0,4.056c0,3.963,0,7.925,0,11.888
	c0.081,0.334,0.215,0.638,0.475,0.877c0.228,0.209,0.502,0.315,0.793,0.392c5.821,0,11.642,0,17.463,0
	c0.302-0.077,0.584-0.19,0.815-0.412c0.247-0.236,0.375-0.532,0.453-0.856c0-3.963,0-7.925,0-11.888
	c-0.024-0.083-0.044-0.169-0.072-0.251C19.749,3.298,19.397,2.973,18.882,2.824z M17.679,3.382c-0.301,0.217-0.573,0.414-0.847,0.61
	c-2.227,1.597-4.454,3.193-6.678,4.793C10.04,8.868,9.969,8.872,9.852,8.788c-2.463-1.772-4.93-3.54-7.396-5.309
	C2.42,3.454,2.388,3.426,2.332,3.382C7.453,3.382,12.548,3.382,17.679,3.382z M17.777,16.617c-5.182,0-10.364,0-15.56,0
	c0-3.374,0-6.739,0-10.132c0.072,0.05,0.126,0.086,0.18,0.125c2.495,1.779,4.991,3.559,7.483,5.341
	c0.092,0.065,0.15,0.065,0.242-0.001c2.497-1.786,4.996-3.567,7.495-5.35c0.047-0.033,0.095-0.065,0.159-0.11
	C17.777,9.877,17.777,13.24,17.777,16.617z"/>
</svg>
