<?xml version="1.0" encoding="utf-8"?>
<!-- Generator: Adobe Illustrator 16.0.0, SVG Export Plug-In . SVG Version: 6.00 Build 0)  -->
<!DOCTYPE svg PUBLIC "-//W3C//DTD SVG 1.1//EN" "http://www.w3.org/Graphics/SVG/1.1/DTD/svg11.dtd">
<svg version="1.1" id="Layer_1" xmlns="http://www.w3.org/2000/svg" xmlns:xlink="http://www.w3.org/1999/xlink" x="0px" y="0px"
	 width="20px" height="20px" viewBox="0 0 20 20" enable-background="new 0 0 20 20" xml:space="preserve">
<path fill="#A700AE" d="M18.182,2H1.818C0.815,2,0,2.828,0,3.846v12.306C0,17.171,0.815,18,1.818,18h16.364
	C19.186,18,20,17.171,20,16.152V3.846C20,2.828,19.186,2,18.182,2z M18.18,16.152H1.818V3.846h16.364L18.18,16.152z M6.677,13.124
	c-0.001-0.017-0.01-0.031-0.01-0.048V6.923c0-0.017,0.009-0.031,0.009-0.047c0.003-0.062,0.021-0.12,0.036-0.18
	c0.016-0.061,0.028-0.12,0.055-0.175C6.774,6.506,6.773,6.49,6.781,6.475c0.021-0.037,0.054-0.06,0.078-0.092
	C6.897,6.331,6.933,6.281,6.98,6.239C7.024,6.2,7.072,6.171,7.122,6.142c0.051-0.03,0.099-0.06,0.156-0.08
	c0.058-0.021,0.116-0.028,0.177-0.037C7.496,6.019,7.533,6,7.576,6c0.018,0,0.032,0.009,0.049,0.01
	C7.682,6.013,7.737,6.03,7.793,6.045c0.062,0.016,0.124,0.03,0.181,0.058c0.014,0.007,0.03,0.006,0.044,0.014l5.455,3.076
	c0.021,0.012,0.032,0.032,0.053,0.045c0.052,0.035,0.096,0.077,0.14,0.122c0.043,0.043,0.082,0.085,0.114,0.135
	c0.015,0.021,0.035,0.034,0.048,0.056c0.019,0.032,0.019,0.067,0.03,0.101c0.023,0.057,0.043,0.113,0.054,0.174
	C13.922,9.884,13.926,9.94,13.926,10s-0.004,0.115-0.015,0.174c-0.011,0.062-0.03,0.118-0.056,0.176
	c-0.013,0.033-0.013,0.067-0.029,0.099c-0.018,0.029-0.04,0.052-0.059,0.078c-0.017,0.023-0.031,0.046-0.049,0.066
	c-0.07,0.084-0.15,0.158-0.244,0.211c-0.002,0-0.002,0.002-0.004,0.002l-5.454,3.076C8,13.893,7.981,13.896,7.963,13.905
	c-0.026,0.013-0.051,0.021-0.078,0.03C7.783,13.975,7.68,14,7.577,14c0,0,0,0-0.001,0s-0.002-0.001-0.003-0.001
	c-0.106,0-0.209-0.024-0.308-0.062c-0.027-0.011-0.051-0.021-0.077-0.032c-0.09-0.044-0.174-0.097-0.247-0.169
	c-0.002-0.004-0.006-0.004-0.008-0.008c-0.058-0.059-0.109-0.127-0.151-0.203c-0.008-0.015-0.007-0.03-0.014-0.045
	c-0.026-0.056-0.039-0.114-0.055-0.174C6.697,13.244,6.68,13.186,6.677,13.124z"/>
</svg>
